<svg width="171" height="48" viewBox="0 0 171 48" fill="none" xmlns="http://www.w3.org/2000/svg">
<path d="M11.2244 47H0.678977L16.7472 0.454544H29.429L45.4744 47H34.929L23.2699 11.0909H22.9062L11.2244 47ZM10.5653 28.7045H35.4744V36.3864H10.5653V28.7045ZM79.1278 22.0455L70.2642 22.5909C70.1127 21.8333 69.7869 21.1515 69.2869 20.5455C68.7869 19.9242 68.1278 19.4318 67.3097 19.0682C66.5066 18.6894 65.5445 18.5 64.4233 18.5C62.9233 18.5 61.6581 18.8182 60.6278 19.4545C59.5975 20.0758 59.0824 20.9091 59.0824 21.9545C59.0824 22.7879 59.4157 23.4924 60.0824 24.0682C60.7491 24.6439 61.893 25.1061 63.5142 25.4545L69.8324 26.7273C73.2263 27.4242 75.7566 28.5455 77.4233 30.0909C79.09 31.6364 79.9233 33.6667 79.9233 36.1818C79.9233 38.4697 79.2491 40.4773 77.9006 42.2045C76.5672 43.9318 74.7339 45.2803 72.4006 46.25C70.0824 47.2045 67.4081 47.6818 64.3778 47.6818C59.7566 47.6818 56.0748 46.7197 53.3324 44.7955C50.6051 42.8561 49.0066 40.2197 48.5369 36.8864L58.0597 36.3864C58.3475 37.7955 59.0445 38.8712 60.1506 39.6136C61.2566 40.3409 62.6733 40.7045 64.4006 40.7045C66.0975 40.7045 67.4612 40.3788 68.4915 39.7273C69.5369 39.0606 70.0672 38.2045 70.0824 37.1591C70.0672 36.2803 69.696 35.5606 68.9688 35C68.2415 34.4242 67.1203 33.9848 65.6051 33.6818L59.5597 32.4773C56.1506 31.7955 53.6127 30.6136 51.946 28.9318C50.2945 27.25 49.4688 25.1061 49.4688 22.5C49.4688 20.2576 50.0748 18.3258 51.2869 16.7045C52.5142 15.0833 54.2339 13.8333 56.446 12.9545C58.6733 12.0758 61.2794 11.6364 64.2642 11.6364C68.6733 11.6364 72.143 12.5682 74.6733 14.4318C77.2188 16.2955 78.7036 18.8333 79.1278 22.0455ZM95.9744 47.6591C93.7472 47.6591 91.7623 47.2727 90.0199 46.5C88.2775 45.7121 86.8987 44.553 85.8835 43.0227C84.8835 41.4773 84.3835 39.553 84.3835 37.25C84.3835 35.3106 84.7396 33.6818 85.4517 32.3636C86.1638 31.0455 87.1335 29.9848 88.3608 29.1818C89.5881 28.3788 90.982 27.7727 92.5426 27.3636C94.1184 26.9545 95.7699 26.6667 97.4972 26.5C99.5275 26.2879 101.164 26.0909 102.406 25.9091C103.649 25.7121 104.55 25.4242 105.111 25.0455C105.671 24.6667 105.952 24.1061 105.952 23.3636V23.2273C105.952 21.7879 105.497 20.6742 104.588 19.8864C103.694 19.0985 102.421 18.7045 100.77 18.7045C99.0275 18.7045 97.6411 19.0909 96.6108 19.8636C95.5805 20.6212 94.8987 21.5758 94.5653 22.7273L85.6108 22C86.0653 19.8788 86.9593 18.0455 88.2926 16.5C89.6259 14.9394 91.3456 13.7424 93.4517 12.9091C95.5729 12.0606 98.0275 11.6364 100.815 11.6364C102.755 11.6364 104.611 11.8636 106.384 12.3182C108.171 12.7727 109.755 13.4773 111.134 14.4318C112.527 15.3864 113.626 16.6136 114.429 18.1136C115.232 19.5985 115.634 21.3788 115.634 23.4545V47H106.452V42.1591H106.179C105.618 43.25 104.868 44.2121 103.929 45.0455C102.99 45.8636 101.861 46.5076 100.543 46.9773C99.2244 47.4318 97.7017 47.6591 95.9744 47.6591ZM98.7472 40.9773C100.171 40.9773 101.429 40.697 102.52 40.1364C103.611 39.5606 104.467 38.7879 105.088 37.8182C105.709 36.8485 106.02 35.75 106.02 34.5227V30.8182C105.717 31.0152 105.3 31.197 104.77 31.3636C104.255 31.5152 103.671 31.6591 103.02 31.7955C102.368 31.9167 101.717 32.0303 101.065 32.1364C100.414 32.2273 99.8229 32.3106 99.2926 32.3864C98.1563 32.553 97.1638 32.8182 96.3153 33.1818C95.4669 33.5455 94.8078 34.0379 94.3381 34.6591C93.8684 35.2652 93.6335 36.0227 93.6335 36.9318C93.6335 38.25 94.1108 39.2576 95.0653 39.9545C96.035 40.6364 97.2623 40.9773 98.7472 40.9773ZM132.827 0.454544V47H123.145V0.454544H132.827ZM150.537 47.6591C148.31 47.6591 146.325 47.2727 144.582 46.5C142.84 45.7121 141.461 44.553 140.446 43.0227C139.446 41.4773 138.946 39.553 138.946 37.25C138.946 35.3106 139.302 33.6818 140.014 32.3636C140.726 31.0455 141.696 29.9848 142.923 29.1818C144.151 28.3788 145.545 27.7727 147.105 27.3636C148.681 26.9545 150.332 26.6667 152.06 26.5C154.09 26.2879 155.726 26.0909 156.969 25.9091C158.211 25.7121 159.113 25.4242 159.673 25.0455C160.234 24.6667 160.514 24.1061 160.514 23.3636V23.2273C160.514 21.7879 160.06 20.6742 159.151 19.8864C158.257 19.0985 156.984 18.7045 155.332 18.7045C153.59 18.7045 152.204 19.0909 151.173 19.8636C150.143 20.6212 149.461 21.5758 149.128 22.7273L140.173 22C140.628 19.8788 141.522 18.0455 142.855 16.5C144.188 14.9394 145.908 13.7424 148.014 12.9091C150.135 12.0606 152.59 11.6364 155.378 11.6364C157.317 11.6364 159.173 11.8636 160.946 12.3182C162.734 12.7727 164.317 13.4773 165.696 14.4318C167.09 15.3864 168.188 16.6136 168.991 18.1136C169.795 19.5985 170.196 21.3788 170.196 23.4545V47H161.014V42.1591H160.741C160.181 43.25 159.431 44.2121 158.491 45.0455C157.552 45.8636 156.423 46.5076 155.105 46.9773C153.787 47.4318 152.264 47.6591 150.537 47.6591ZM153.31 40.9773C154.734 40.9773 155.991 40.697 157.082 40.1364C158.173 39.5606 159.029 38.7879 159.651 37.8182C160.272 36.8485 160.582 35.75 160.582 34.5227V30.8182C160.279 31.0152 159.863 31.197 159.332 31.3636C158.817 31.5152 158.234 31.6591 157.582 31.7955C156.931 31.9167 156.279 32.0303 155.628 32.1364C154.976 32.2273 154.385 32.3106 153.855 32.3864C152.719 32.553 151.726 32.8182 150.878 33.1818C150.029 33.5455 149.37 34.0379 148.901 34.6591C148.431 35.2652 148.196 36.0227 148.196 36.9318C148.196 38.25 148.673 39.2576 149.628 39.9545C150.598 40.6364 151.825 40.9773 153.31 40.9773Z" fill="black"/>
</svg>
